<svg version="1.2" xmlns="http://www.w3.org/2000/svg" width="98" height="32"><style>.s1{fill:#fff}</style><g id="Layer"><path id="Layer" d="M-1 16C-1 7.2 6.2 0 15 0h68c8.8 0 16 7.2 16 16s-7.2 16-16 16H15C6.2 32-1 24.8-1 16z" style="fill:#202020"/></g><path id="Layer" fill-rule="evenodd" class="s1" d="M11.8 20.5h-1.5l3.4-9.5h1.7l3.4 9.5h-1.5l-.9-2.5h.6v-1.2h-1l-1.4-4h-.1l-1.4 4h-1V18h.6zm.9-2.5.4-1.2h2.8l.5 1.2zm7.3 2.5v-7.1h1.4v3h.6l2.4-3h1.7l-2.8 3.5 2.8 3.6h-1.7l-2.1-2.8h-.9v2.8zm7.2 0v-7.1h1.3v3h.7l2.4-3h1.7l-2.8 3.5 2.8 3.6h-1.7l-2.2-2.8h-.9v2.8zm9.3.2q-.7 0-1.2-.3-.6-.2-.9-.7-.3-.5-.3-1.2 0-.6.2-1 .3-.4.7-.6.4-.2.8-.3.5-.2 1-.2.7-.1 1.1-.1.4-.1.5-.2.2-.1.2-.4 0-.6-.3-.9-.4-.4-1-.4-.7 0-1.1.3-.4.3-.6.7l-1.3-.3q.3-.6.7-1 .5-.4 1-.6.6-.2 1.3-.2.4 0 .9.1.4.1.9.4.4.2.6.7.3.5.3 1.3v4.7h-1.3v-1h-.1q-.1.3-.4.6-.3.2-.7.4-.4.2-1 .2zm.3-1.2q.6 0 1-.2t.6-.6q.2-.3.2-.8V17q0 .1-.3.2-.2 0-.4.1h-.6q-.2.1-.4.1-.4.1-.7.2-.3.1-.5.3-.2.2-.2.6 0 .5.3.8.4.2 1 .2zm5.7 3.7q-.3 0-.6-.1-.2 0-.4-.1l.4-1.1q.3.1.6.1.3-.1.6-.3.2-.2.4-.6l.1-.5-2.6-7.2h1.5l1.8 5.5h.1l1.8-5.5h1.5l-3 8q-.2.6-.5 1t-.7.6q-.5.2-1 .2zm7.8-5.6v2.9H49v-7.1h1.3v3h3.1v-3h1.3v7.1h-1.3v-2.9zm5.4-3v-1.2h5.9v1.2h-2.3v5.9H58v-5.9z"/><path id="Layer" d="M70 16c0-7.2 5.8-13 13-13s13 5.8 13 13-5.8 13-13 13-13-5.8-13-13z" style="fill:#313131"/><path id="Layer" fill-rule="evenodd" class="s1" d="M84.4 18c1.4-.6 2.3-1.9 2.3-3.5 0-2.1-1.6-3.8-3.7-3.8s-3.8 1.7-3.8 3.8c0 1.6 1 2.9 2.4 3.5-1.4.2-2.7.8-3.8 1.6l1.4 1.8c1.1-.8 2.4-1.3 3.8-1.3s2.7.5 3.8 1.3l1.4-1.8c-1.1-.8-2.4-1.4-3.8-1.6z"/></svg>