<svg version="1.2" xmlns="http://www.w3.org/2000/svg" viewBox="0 0 16 16" width="16" height="16">
	<title>button-saved-svg</title>
	<style>
		.s0 { fill: #2be080 } 
		.s1 { fill: #ffffff } 
	</style>
	<g id="Layer">
		<path id="Layer" class="s0" d="m8 16c-4.4 0-8-3.6-8-8 0-4.4 3.6-8 8-8 4.4 0 8 3.6 8 8 0 4.4-3.6 8-8 8z"/>
	</g>
	<path id="Layer" fill-rule="evenodd" class="s1" d="m0 8c0-4.4 3.6-8 8-8 4.4 0 8 3.6 8 8 0 4.4-3.6 8-8 8-4.4 0-8-3.6-8-8zm8 6c3.3 0 6-2.7 6-6 0-3.3-2.7-6-6-6-3.3 0-6 2.7-6 6 0 3.3 2.7 6 6 6z"/>
</svg>